{
  "asset": {
    "generator": "glTF-Transform v4.4.2",
    "version": "2.0",
    "extras": {
      "author": "cmzw (https://sketchfab.com/cmzw)",
      "license": "CC-BY-4.0 (http://creativecommons.org/licenses/by/4.0/)",
      "source": "https://sketchfab.com/3d-models/stylized-planet-789725db86f547fc9163b00f302c3e70",
      "title": "Stylized planet"
    }
  },
  "accessors": [
    {
      "type": "SCALAR",
      "componentType": 5126,
      "count": 4,
      "max": [
        15
      ],
      "min": [
        0
      ],
      "normalized": false,
      "byteOffset": 0,
      "bufferView": 0
    },
    {
      "type": "VEC4",
      "componentType": 5122,
      "count": 4,
      "normalized": true,
      "byteOffset": 0,
      "bufferView": 1
    },
    {
      "type": "SCALAR",
      "componentType": 5126,
      "count": 2,
      "max": [
        15
      ],
      "min": [
        0
      ],
      "normalized": false,
      "byteOffset": 16,
      "bufferView": 0
    },
    {
      "type": "VEC3",
      "componentType": 5126,
      "count": 2,
      "normalized": false,
      "byteOffset": 0,
      "bufferView": 2
    },
    {
      "type": "SCALAR",
      "componentType": 5123,
      "count": 102678,
      "normalized": false,
      "byteOffset": 0,
      "bufferView": 3
    },
    {
      "type": "SCALAR",
      "componentType": 5123,
      "count": 38448,
      "normalized": false,
      "byteOffset": 205356,
      "bufferView": 3
    },
    {
      "type": "VEC3",
      "componentType": 5122,
      "count": 26426,
      "max": [
        32767,
        32127,
        32703
      ],
      "min": [
        -32767,
        -32127,
        -32703
      ],
      "normalized": true,
      "byteOffset": 0,
      "bufferView": 4
    },
    {
      "type": "VEC2",
      "componentType": 5123,
      "count": 26426,
      "normalized": true,
      "byteOffset": 0,
      "bufferView": 5
    },
    {
      "type": "VEC3",
      "componentType": 5122,
      "count": 6488,
      "max": [
        32767,
        32635,
        32735
      ],
      "min": [
        -32767,
        -32635,
        -32735
      ],
      "normalized": true,
      "byteOffset": 0,
      "bufferView": 6
    },
    {
      "type": "VEC2",
      "componentType": 5123,
      "count": 6488,
      "normalized": true,
      "byteOffset": 0,
      "bufferView": 7
    }
  ],
  "bufferViews": [
    {
      "buffer": 1,
      "byteOffset": 0,
      "byteLength": 24,
      "extensions": {
        "EXT_meshopt_compression": {
          "buffer": 0,
          "byteOffset": 0,
          "byteLength": 65,
          "mode": "ATTRIBUTES",
          "byteStride": 4,
          "count": 6
        }
      }
    },
    {
      "buffer": 1,
      "byteOffset": 24,
      "byteLength": 32,
      "extensions": {
        "EXT_meshopt_compression": {
          "buffer": 0,
          "byteOffset": 68,
          "byteLength": 88,
          "mode": "ATTRIBUTES",
          "filter": "QUATERNION",
          "byteStride": 8,
          "count": 4
        }
      }
    },
    {
      "buffer": 1,
      "byteOffset": 56,
      "byteLength": 24,
      "extensions": {
        "EXT_meshopt_compression": {
          "buffer": 0,
          "byteOffset": 156,
          "byteLength": 45,
          "mode": "ATTRIBUTES",
          "filter": "EXPONENTIAL",
          "byteStride": 12,
          "count": 2
        }
      }
    },
    {
      "buffer": 1,
      "byteOffset": 80,
      "byteLength": 282252,
      "target": 34963,
      "extensions": {
        "EXT_meshopt_compression": {
          "buffer": 0,
          "byteOffset": 204,
          "byteLength": 52434,
          "mode": "TRIANGLES",
          "byteStride": 2,
          "count": 141126
        }
      }
    },
    {
      "buffer": 1,
      "byteOffset": 282332,
      "byteLength": 211408,
      "target": 34962,
      "byteStride": 8,
      "extensions": {
        "EXT_meshopt_compression": {
          "buffer": 0,
          "byteOffset": 52640,
          "byteLength": 124921,
          "mode": "ATTRIBUTES",
          "byteStride": 8,
          "count": 26426
        }
      }
    },
    {
      "buffer": 1,
      "byteOffset": 493740,
      "byteLength": 105704,
      "target": 34962,
      "byteStride": 4,
      "extensions": {
        "EXT_meshopt_compression": {
          "buffer": 0,
          "byteOffset": 177564,
          "byteLength": 75855,
          "mode": "ATTRIBUTES",
          "byteStride": 4,
          "count": 26426
        }
      }
    },
    {
      "buffer": 1,
      "byteOffset": 599444,
      "byteLength": 51904,
      "target": 34962,
      "byteStride": 8,
      "extensions": {
        "EXT_meshopt_compression": {
          "buffer": 0,
          "byteOffset": 253420,
          "byteLength": 30880,
          "mode": "ATTRIBUTES",
          "byteStride": 8,
          "count": 6488
        }
      }
    },
    {
      "buffer": 1,
      "byteOffset": 651348,
      "byteLength": 25952,
      "target": 34962,
      "byteStride": 4,
      "extensions": {
        "EXT_meshopt_compression": {
          "buffer": 0,
          "byteOffset": 284300,
          "byteLength": 20020,
          "mode": "ATTRIBUTES",
          "byteStride": 4,
          "count": 6488
        }
      }
    }
  ],
  "samplers": [
    {
      "magFilter": 9729,
      "minFilter": 9987,
      "wrapS": 10497,
      "wrapT": 10497
    }
  ],
  "textures": [
    {
      "source": 0,
      "sampler": 0
    },
    {
      "source": 1,
      "sampler": 0
    }
  ],
  "images": [
    {
      "mimeType": "image/png",
      "uri": "textures/Clouds_baseColor.png"
    },
    {
      "mimeType": "image/png",
      "uri": "textures/Planet_baseColor.png"
    }
  ],
  "buffers": [
    {
      "uri": "scene.bin",
      "byteLength": 304320
    },
    {
      "byteLength": 677300,
      "extensions": {
        "EXT_meshopt_compression": {
          "fallback": true
        }
      }
    }
  ],
  "materials": [
    {
      "name": "Clouds",
      "doubleSided": true,
      "pbrMetallicRoughness": {
        "metallicFactor": 0,
        "baseColorTexture": {
          "index": 0
        }
      },
      "emissiveTexture": {
        "index": 0
      },
      "extensions": {
        "KHR_materials_unlit": {}
      }
    },
    {
      "name": "Planet",
      "pbrMetallicRoughness": {
        "metallicFactor": 0,
        "baseColorTexture": {
          "index": 1
        }
      },
      "emissiveFactor": [
        0.23391156271636818,
        0.23391156271636818,
        0.23391156271636818
      ],
      "emissiveTexture": {
        "index": 1
      },
      "extensions": {
        "KHR_materials_unlit": {}
      }
    }
  ],
  "meshes": [
    {
      "name": "Object_0",
      "primitives": [
        {
          "attributes": {
            "POSITION": 6,
            "TEXCOORD_0": 7
          },
          "mode": 4,
          "material": 0,
          "indices": 4
        }
      ]
    },
    {
      "name": "Object_1",
      "primitives": [
        {
          "attributes": {
            "POSITION": 8,
            "TEXCOORD_0": 9
          },
          "mode": 4,
          "material": 1,
          "indices": 5
        }
      ]
    }
  ],
  "nodes": [
    {
      "name": "GLTF_SceneRootNode",
      "rotation": [
        0.015606851596380344,
        -0.0004979385061947672,
        0.03188506504760421,
        0.999369561707481
      ],
      "children": [
        1,
        3
      ]
    },
    {
      "name": "Clouds_1",
      "children": [
        2
      ]
    },
    {
      "name": "Object_4",
      "translation": [
        -0.0002295970916748047,
        -0.004476189613342285,
        -0.0014905333518981934
      ],
      "scale": [
        0.8761060833930969,
        0.8761060833930969,
        0.8761060833930969
      ],
      "mesh": 0
    },
    {
      "name": "Planet_2",
      "children": [
        4
      ]
    },
    {
      "name": "Object_6",
      "translation": [
        -0.0027518868446350098,
        0.0061241984367370605,
        0.004600942134857178
      ],
      "scale": [
        0.6578698754310608,
        0.6578698754310608,
        0.6578698754310608
      ],
      "mesh": 1
    }
  ],
  "animations": [
    {
      "name": "Animation",
      "samplers": [
        {
          "input": 0,
          "output": 1,
          "interpolation": "LINEAR"
        },
        {
          "input": 2,
          "output": 3,
          "interpolation": "LINEAR"
        },
        {
          "input": 0,
          "output": 1,
          "interpolation": "LINEAR"
        },
        {
          "input": 2,
          "output": 3,
          "interpolation": "LINEAR"
        }
      ],
      "channels": [
        {
          "sampler": 0,
          "target": {
            "node": 1,
            "path": "rotation"
          }
        },
        {
          "sampler": 1,
          "target": {
            "node": 1,
            "path": "scale"
          }
        },
        {
          "sampler": 2,
          "target": {
            "node": 3,
            "path": "rotation"
          }
        },
        {
          "sampler": 3,
          "target": {
            "node": 3,
            "path": "scale"
          }
        }
      ]
    }
  ],
  "scenes": [
    {
      "name": "Sketchfab_Scene",
      "nodes": [
        0
      ]
    }
  ],
  "scene": 0,
  "extensionsUsed": [
    "EXT_meshopt_compression",
    "KHR_materials_unlit",
    "KHR_mesh_quantization"
  ],
  "extensionsRequired": [
    "EXT_meshopt_compression",
    "KHR_mesh_quantization"
  ]
}